<svg width="44" height="44" viewBox="0 0 44 44" fill="none" xmlns="http://www.w3.org/2000/svg">
<rect x="39.3336" y="35.3969" width="19.2824" height="6.29895" rx="0.334752" transform="rotate(-135 39.3336 35.3969)" fill="#161616"/>
<rect x="13.6348" y="26.2163" width="19.2824" height="6.29895" rx="0.334752" transform="rotate(-135 13.6348 26.2163)" fill="#161616"/>
<rect x="13.6348" y="9.92526" width="7.73749" height="6.29895" rx="0.334752" transform="rotate(-135 13.6348 9.92526)" fill="#161616"/>
<path d="M8.68245 39.3846C8.55173 39.2539 8.55173 39.0419 8.68245 38.9112L22.0699 25.5237C22.0758 25.5179 22.0853 25.5179 22.0911 25.5237L22.0915 25.5241C22.0973 25.5299 22.1066 25.5298 22.1123 25.5239C22.1179 25.518 22.1272 25.5179 22.133 25.5236L35.5206 38.9112C35.6513 39.0419 35.6513 39.2539 35.5206 39.3846L31.5399 43.3653C31.4091 43.496 31.1972 43.496 31.0665 43.3653L22.3387 34.6375C22.208 34.5068 21.996 34.5068 21.8653 34.6375L13.1366 43.3653C13.0058 43.496 12.7939 43.496 12.6632 43.3653L8.68245 39.3846Z" fill="#161616"/>
<rect x="17.6682" y="13.7544" width="19.2824" height="6.29895" rx="0.334752" transform="rotate(-45 17.6682 13.7544)" fill="#161616"/>
<rect x="33.9226" y="13.5376" width="7.67963" height="6.29895" rx="0.334752" transform="rotate(-45 33.9226 13.5376)" fill="#161616"/>
<rect x="0.000705704" y="30.9438" width="7.67963" height="6.29895" rx="0.334752" transform="rotate(-45 0.000705704 30.9438)" fill="#161616"/>
</svg>
