<svg width="171" height="32" viewBox="0 0 171 32" fill="none" xmlns="http://www.w3.org/2000/svg">
<path d="M6.57801 30.4625L0.0117255 30.4801L0.0351765 22.7296C0.222784 21.4632 0.474883 20.191 1.45396 19.3468C2.52685 18.4204 2.87528 18.2739 4.37028 18.2856L4.382 14.2813C2.80492 14.3224 2.46822 14.1465 1.31326 13.1791C0.551098 12.2997 0.0586275 11.0861 0.0527648 9.83737L0 0.5625L16.2457 0.585951C18.1393 0.585951 19.9392 1.10187 21.5163 1.99301C25.7668 4.38501 26.5583 10.4002 24.5591 14.6917C23.7559 16.4154 22.3136 17.5879 20.6193 18.3794C19.0598 19.036 17.4358 19.3409 15.7122 19.3409H6.56628V30.4684L6.57801 30.4625ZM19.0598 9.86082C19.0363 8.10786 17.9752 7.07602 16.3688 6.77115H6.58387V13.2202L16.1343 13.1733C17.9283 13.1615 19.0833 11.5845 19.0598 9.86668V9.86082Z" fill="#F1F1F1"/>
<path d="M73.8429 0.580088L65.1384 25.1919C64.4592 27.1032 63.1139 28.733 61.1686 29.6593C58.366 30.996 54.9633 30.9433 52.1871 29.6593C50.189 28.733 49.0877 27.1735 48.2371 25.315L39.427 0.574226L46.9709 0.5625L54.6072 23.1693C55.1216 23.9549 55.7282 24.5118 56.5987 24.5646C57.5681 24.6232 58.2077 24.0018 58.7353 23.1634L66.3122 0.574226H73.8429V0.580088Z" fill="#F1F1F1"/>
<path d="M134.934 6.75357L125.94 6.7653V30.4684H118.401V6.75944H107.637V0.550785L116.413 0.585961C118.799 0.820471 119.163 2.54998 119.157 4.99475L125.172 4.98302C125.108 2.50308 125.641 0.744255 128.08 0.580098L136.681 0.544922V6.75357H134.934Z" fill="#F1F1F1"/>
<path d="M170.589 0.324219V7.27404C169.077 7.15647 167.692 7.60716 166.638 8.71757L162.681 13.9629C158.555 18.3 152.045 18.0518 147.962 13.7081L144.396 8.82861C143.324 7.68555 141.909 7.19566 140.337 7.27404V0.324219L143.963 0.598554C145.824 0.742253 147.438 1.70243 148.739 3.11329L153.37 9.20119C154.605 10.5337 156.502 10.4422 157.688 9.14241L162.205 3.11329C163.47 1.72855 165.036 0.76838 166.837 0.624681L170.589 0.324219Z" fill="#F1F1F1"/>
<path d="M139.989 30.6885L139.989 23.7386C141.501 23.8562 142.886 23.4055 143.94 22.2951L147.897 17.0498C152.022 12.7127 158.532 12.9609 162.616 17.3046L166.181 22.1841C167.253 23.3271 168.668 23.817 170.24 23.7387L170.24 30.6885L166.615 30.4141C164.754 30.2704 163.14 29.3103 161.839 27.8994L157.208 21.8115C155.973 20.479 154.076 20.5705 152.889 21.8703L148.372 27.8994C147.108 29.2841 145.542 30.2443 143.741 30.388L139.989 30.6885Z" fill="#F1F1F1"/>
<path d="M35.9152 30.4508L29.6362 30.4801V0.585951L35.9152 0.5625V30.4508Z" fill="#F1F1F1"/>
<path d="M99.0441 25.8842L95.1992 31.044L84.6278 30.9892C81.1156 30.9771 78.1758 29.0787 76.6564 26.4805C75.667 24.7829 75.2713 23.0061 75.2713 21.0956V10.4778C75.2784 9.13309 75.6317 7.72754 76.6352 6.72965C77.8224 5.55531 79.6033 5.26933 81.4265 5.28758V0L94.1821 0.0243387C96.1821 0.0243387 98.0972 0.432012 99.8427 1.16826C103.737 2.8172 105.136 6.57753 105.115 10.2709L105.051 21.4241C105.044 22.7628 104.252 23.9797 103.256 24.8376C101.991 25.5495 100.882 25.8234 99.0371 25.8781L99.0441 25.8842ZM97.5742 24.7159V9.41299C97.3128 7.83706 96.1114 6.47409 94.1609 6.46801L82.7904 6.44975V21.6249C83.0589 23.4503 84.4935 24.6916 86.6277 24.6977L97.5742 24.7159Z" fill="#F1F1F1"/>
<path d="M105.053 20.8574L105.054 21.1079C105.081 26.6001 100.626 31.0612 95.1333 31.0412L98.9597 25.7621L105.053 20.8574Z" fill="#F1F1F1"/>
</svg>
